<svg width="2000px" height="1381px"
 viewBox="0.00 0.00 687.97 474.54" xmlns="http://www.w3.org/2000/svg" xmlns:xlink="http://www.w3.org/1999/xlink">
<g id="graph0" class="graph" transform="scale(1.0 1.0) rotate(0) translate(4 470.54)">
<title>ContextMapGraph</title>
<polygon fill="white" stroke="none" points="-4,4 -4,-470.54 683.97,-470.54 683.97,4 -4,4"/>
<g id="clust1" class="cluster">
<title>cluster_GenericSubgraph</title>
<polygon fill="none" stroke="white" points="42,-8 42,-268.58 582,-268.58 582,-8 42,-8"/>
</g>
<g id="clust2" class="cluster">
<title>cluster_Teams_Subgraph</title>
<polygon fill="none" stroke="white" points="8,-302.83 8,-458.54 628,-458.54 628,-302.83 8,-302.83"/>
</g>
<!-- Dev_Team1 -->
<g id="node1" class="node">
<title>Dev_Team1</title>
<polygon fill="none" stroke="black" stroke-width="2" points="452.39,-443.7 443.68,-443.06 435.08,-442.25 426.64,-441.28 418.38,-440.14 410.33,-438.84 402.54,-437.38 395.03,-435.77 387.84,-434.01 380.97,-432.11 374.47,-430.07 368.36,-427.9 362.65,-425.6 357.37,-423.19 352.52,-420.66 348.13,-418.02 344.2,-415.29 340.74,-412.47 337.76,-409.56 335.26,-406.58 333.24,-403.53 331.7,-400.42 330.63,-397.26 330.04,-394.05 329.91,-390.81 330.22,-387.55 330.98,-384.27 332.16,-380.98 333.75,-377.68 335.74,-374.4 338.1,-371.14 340.81,-367.9 343.87,-364.69 347.24,-361.53 350.91,-358.41 354.85,-355.36 359.05,-352.37 363.49,-349.46 368.14,-346.63 372.99,-343.89 378.01,-341.25 383.18,-338.71 388.5,-336.29 393.94,-333.98 399.48,-331.79 405.11,-329.74 410.82,-327.82 416.59,-326.04 422.41,-324.41 428.27,-322.93 434.16,-321.61 440.07,-320.44 446,-319.44 451.93,-318.6 457.86,-317.93 463.78,-317.43 469.69,-317.1 475.59,-316.95 481.47,-316.97 487.32,-317.16 493.15,-317.53 498.94,-318.07 504.7,-318.78 510.42,-319.67 516.09,-320.72 521.72,-321.95 527.29,-323.33 532.8,-324.87 538.25,-326.58 543.62,-328.43 548.9,-330.43 554.09,-332.57 559.18,-334.84 564.16,-337.25 569,-339.78 573.71,-342.42 578.26,-345.17 582.64,-348.03 586.83,-350.97 590.83,-354.01 594.6,-357.11 598.14,-360.29 601.42,-363.53 604.43,-366.81 607.15,-370.13 609.56,-373.49 611.64,-376.87 613.38,-380.25 614.76,-383.64 615.76,-387.02 616.36,-390.39 616.57,-393.73 616.35,-397.03 615.71,-400.28 614.62,-403.48 613.09,-406.61 611.11,-409.67 608.67,-412.65 605.78,-415.54 602.42,-418.33 598.62,-421.01 594.36,-423.58 589.67,-426.02 584.54,-428.34 579,-430.53 573.06,-432.57 566.73,-434.47 560.04,-436.21 553,-437.81 545.65,-439.24 538,-440.5 530.09,-441.6 521.95,-442.53 513.6,-443.29 505.09,-443.88 496.44,-444.29 487.69,-444.52 478.87,-444.58 470.02,-444.46 461.19,-444.17 452.39,-443.7"/>
<image xlink:href="/tmp/GraphvizJava/team-icon.png" width="37px" height="43px" preserveAspectRatio="xMinYMin meet" x="403.375" y="-402.189"/>
<text text-anchor="start" x="477.25" y="-387.99" font-family="sans-serif" font-weight="bold" font-size="16.00">Team</text>
<text text-anchor="start" x="454.38" y="-363.49" font-family="sans-serif" font-size="16.00">Dev_Team1</text>
</g>
<!-- Card_Operations -->
<g id="node2" class="node">
<title>Card_Operations</title>
<polygon fill="none" stroke="black" stroke-width="2" points="348.22,-244.79 342.19,-242.81 336.44,-240.76 330.99,-238.65 325.86,-236.47 321.08,-234.24 316.67,-231.96 312.64,-229.65 309.01,-227.32 305.8,-224.96 303.03,-222.58 300.69,-220.21 298.81,-217.83 297.38,-215.47 296.42,-213.12 295.92,-210.79 295.89,-208.49 296.33,-206.23 297.22,-204.01 298.57,-201.83 300.37,-199.7 302.6,-197.62 305.26,-195.6 308.32,-193.65 311.78,-191.76 315.62,-189.93 319.82,-188.18 324.35,-186.5 329.2,-184.9 334.34,-183.37 339.76,-181.93 345.42,-180.56 351.31,-179.27 357.39,-178.07 363.65,-176.95 370.06,-175.92 376.59,-174.97 383.22,-174.11 389.92,-173.33 396.68,-172.65 403.46,-172.05 410.25,-171.54 417.03,-171.12 423.77,-170.79 430.45,-170.55 437.06,-170.41 443.58,-170.35 449.99,-170.39 456.28,-170.52 462.44,-170.75 468.45,-171.07 474.3,-171.48 479.98,-172 485.48,-172.61 490.8,-173.31 495.93,-174.11 500.85,-175.01 505.58,-176.01 510.1,-177.1 514.4,-178.29 518.5,-179.58 522.38,-180.96 526.04,-182.43 529.48,-183.99 532.71,-185.64 535.71,-187.38 538.49,-189.21 541.05,-191.11 543.39,-193.09 545.5,-195.15 547.38,-197.27 549.04,-199.46 550.46,-201.71 551.66,-204.01 552.62,-206.36 553.35,-208.75 553.83,-211.18 554.08,-213.63 554.07,-216.1 553.82,-218.58 553.32,-221.07 552.56,-223.55 551.53,-226.02 550.25,-228.46 548.69,-230.88 546.86,-233.26 544.75,-235.59 542.37,-237.86 539.7,-240.06 536.76,-242.2 533.53,-244.25 530.01,-246.21 526.21,-248.07 522.14,-249.83 517.78,-251.47 513.15,-253 508.25,-254.39 503.09,-255.66 497.68,-256.79 492.02,-257.78 486.13,-258.63 480.02,-259.32 473.7,-259.87 467.19,-260.26 460.51,-260.5 453.67,-260.58 446.69,-260.51 439.6,-260.29 432.42,-259.91 425.16,-259.38 417.86,-258.7 410.54,-257.88 403.23,-256.92 395.95,-255.82 388.73,-254.59 381.6,-253.23 374.58,-251.75 367.7,-250.16 361,-248.47 354.5,-246.67 348.22,-244.79"/>
<text text-anchor="middle" x="435" y="-207.18" font-family="sans-serif" font-size="16.00">Card_Operations</text>
</g>
<!-- Dev_Team1&#45;&gt;Card_Operations -->
<g id="edge3" class="edge">
<title>Dev_Team1&#45;&gt;Card_Operations</title>
<path fill="none" stroke="#686868" stroke-dasharray="5,2" d="M459.99,-317.38C456.41,-302.5 452.59,-286.66 449.05,-271.96"/>
<polygon fill="#686868" stroke="#686868" points="452.5,-271.35 446.76,-262.45 445.7,-272.99 452.5,-271.35"/>
<text text-anchor="middle" x="487.55" y="-281.43" font-family="sans-serif" font-size="12.00" fill="#686868"> &#160;«realizes»</text>
</g>
<!-- Statements -->
<g id="node3" class="node">
<title>Statements</title>
<polygon fill="none" stroke="black" stroke-width="2" points="528.96,-42.1 532.3,-44.55 535.4,-47.06 538.23,-49.6 540.8,-52.17 543.07,-54.77 545.06,-57.37 546.73,-59.97 548.1,-62.56 549.15,-65.13 549.87,-67.67 550.26,-70.18 550.32,-72.65 550.05,-75.06 549.45,-77.42 548.51,-79.71 547.25,-81.94 545.66,-84.08 543.76,-86.15 541.55,-88.13 539.03,-90.02 536.22,-91.82 533.14,-93.53 529.78,-95.14 526.18,-96.65 522.33,-98.06 518.25,-99.37 513.97,-100.58 509.5,-101.68 504.86,-102.69 500.05,-103.59 495.11,-104.39 490.05,-105.09 484.9,-105.7 479.66,-106.21 474.35,-106.62 469.01,-106.94 463.64,-107.16 458.26,-107.3 452.9,-107.34 447.56,-107.3 442.27,-107.17 437.04,-106.96 431.89,-106.66 426.82,-106.28 421.87,-105.82 417.03,-105.27 412.33,-104.65 407.76,-103.95 403.35,-103.17 399.1,-102.31 395.02,-101.37 391.12,-100.36 387.4,-99.26 383.87,-98.1 380.54,-96.85 377.41,-95.53 374.48,-94.14 371.76,-92.67 369.25,-91.13 366.95,-89.51 364.86,-87.82 362.99,-86.07 361.32,-84.24 359.87,-82.35 358.63,-80.4 357.6,-78.38 356.77,-76.31 356.16,-74.18 355.76,-72 355.55,-69.78 355.56,-67.51 355.76,-65.21 356.17,-62.88 356.77,-60.52 357.57,-58.14 358.57,-55.76 359.76,-53.37 361.14,-50.98 362.72,-48.61 364.48,-46.25 366.43,-43.92 368.56,-41.63 370.88,-39.39 373.38,-37.2 376.06,-35.07 378.91,-33.01 381.94,-31.03 385.14,-29.14 388.5,-27.35 392.03,-25.67 395.72,-24.1 399.56,-22.65 403.55,-21.32 407.68,-20.13 411.95,-19.08 416.34,-18.18 420.85,-17.43 425.48,-16.83 430.2,-16.39 435.02,-16.11 439.91,-16 444.88,-16.05 449.89,-16.27 454.96,-16.65 460.05,-17.19 465.15,-17.9 470.25,-18.77 475.34,-19.79 480.39,-20.96 485.39,-22.28 490.33,-23.75 495.18,-25.35 499.94,-27.08 504.57,-28.92 509.07,-30.89 513.42,-32.95 517.6,-35.12 521.6,-37.37 525.39,-39.7 528.96,-42.1"/>
<text text-anchor="middle" x="447" y="-59.77" font-family="sans-serif" font-size="16.00">Statements</text>
</g>
<!-- Dev_Team1&#45;&gt;Statements -->
<g id="edge2" class="edge">
<title>Dev_Team1&#45;&gt;Statements</title>
<path fill="none" stroke="#686868" stroke-dasharray="5,2" d="M540.33,-326.97C556.97,-310.12 572.97,-290.18 583,-268.58 608.58,-213.49 628.04,-183.41 595,-132.43 584.21,-115.79 568.16,-103.29 550.54,-93.92"/>
<polygon fill="#686868" stroke="#686868" points="552.5,-90.98 541.98,-89.7 549.4,-97.26 552.5,-90.98"/>
<text text-anchor="middle" x="646.22" y="-208.36" font-family="sans-serif" font-size="12.00" fill="#686868"> &#160;«realizes»</text>
</g>
<!-- Card_Operations&#45;&gt;Statements -->
<g id="edge1" class="edge">
<title>Card_Operations&#45;&gt;Statements</title>
<path fill="none" stroke="black" stroke-width="2" d="M438.44,-169.96C440.05,-150.41 441.97,-127.17 443.58,-107.64"/>
<text text-anchor="middle" x="516.36" y="-135.28" font-family="sans-serif" font-size="12.00"> &#160;&#160;&#160;&#160;&#160;&#160;&#160;&#160;&#160;&#160;&#160;&#160;&#160;&#160;&#160;&#160;&#160;&#160;&#160;&#160;&#160;&#160;&#160;&#160;&#160;&#160;&#160;&#160;&#160;&#160;&#160;&#160;&#160;&#160;&#160;&#160;&#160;&#160;&#160;</text>
<polygon fill="white" stroke="none" points="425.58,-97.52 425.58,-117.77 440.58,-117.77 440.58,-97.52 425.58,-97.52"/>
<polyline fill="none" stroke="black" points="440.58,-97.52 440.58,-117.77"/>
<text text-anchor="start" x="428.58" y="-103.37" font-family="sans-serif" font-size="12.00">D</text>
<polygon fill="white" stroke="none" points="440.58,-97.52 440.58,-117.77 461.58,-117.77 461.58,-97.52 440.58,-97.52"/>
<polygon fill="none" stroke="black" points="440.58,-97.52 440.58,-117.77 461.58,-117.77 461.58,-97.52 440.58,-97.52"/>
<text text-anchor="start" x="443.58" y="-103.37" font-family="sans-serif" font-size="12.00">CF</text>
<polygon fill="white" stroke="none" points="403.94,-159.84 403.94,-180.09 418.94,-180.09 418.94,-159.84 403.94,-159.84"/>
<polyline fill="none" stroke="black" points="418.94,-159.84 418.94,-180.09"/>
<text text-anchor="start" x="406.94" y="-165.69" font-family="sans-serif" font-size="12.00">U</text>
<polygon fill="white" stroke="none" points="418.94,-159.84 418.94,-180.09 472.94,-180.09 472.94,-159.84 418.94,-159.84"/>
<polygon fill="none" stroke="black" points="418.94,-159.84 418.94,-180.09 472.94,-180.09 472.94,-159.84 418.94,-159.84"/>
<text text-anchor="start" x="421.94" y="-165.69" font-family="sans-serif" font-size="12.00">OHS, PL</text>
</g>
<!-- Dev_Team2 -->
<g id="node4" class="node">
<title>Dev_Team2</title>
<polygon fill="none" stroke="black" stroke-width="2" points="247.75,-430.81 240.91,-433.45 233.89,-435.93 226.71,-438.25 219.39,-440.4 211.97,-442.36 204.47,-444.12 196.92,-445.69 189.34,-447.05 181.77,-448.19 174.22,-449.11 166.72,-449.81 159.3,-450.28 151.97,-450.53 144.76,-450.54 137.69,-450.33 130.77,-449.88 124.03,-449.21 117.47,-448.31 111.12,-447.2 104.98,-445.87 99.07,-444.33 93.4,-442.59 87.97,-440.65 82.8,-438.53 77.89,-436.24 73.25,-433.77 68.87,-431.16 64.77,-428.39 60.95,-425.5 57.41,-422.48 54.14,-419.36 51.15,-416.14 48.44,-412.83 46.02,-409.46 43.86,-406.03 41.99,-402.55 40.39,-399.04 39.06,-395.51 38,-391.97 37.22,-388.44 36.7,-384.92 36.45,-381.42 36.46,-377.96 36.74,-374.55 37.29,-371.2 38.1,-367.9 39.17,-364.68 40.51,-361.54 42.11,-358.49 43.97,-355.53 46.1,-352.67 48.49,-349.91 51.14,-347.26 54.05,-344.73 57.23,-342.31 60.68,-340.01 64.38,-337.83 68.34,-335.77 72.56,-333.84 77.04,-332.04 81.76,-330.36 86.74,-328.81 91.96,-327.39 97.41,-326.1 103.09,-324.94 108.99,-323.9 115.1,-323 121.41,-322.22 127.91,-321.57 134.58,-321.05 141.42,-320.65 148.39,-320.38 155.49,-320.24 162.7,-320.23 170,-320.34 177.37,-320.58 184.78,-320.95 192.21,-321.44 199.64,-322.07 207.04,-322.82 214.39,-323.7 221.66,-324.71 228.83,-325.85 235.86,-327.12 242.74,-328.51 249.43,-330.04 255.91,-331.69 262.15,-333.48 268.13,-335.39 273.81,-337.42 279.18,-339.59 284.22,-341.87 288.89,-344.27 293.18,-346.8 297.08,-349.43 300.55,-352.18 303.59,-355.03 306.19,-357.98 308.32,-361.03 309.98,-364.16 311.17,-367.38 311.86,-370.66 312.07,-374.02 311.79,-377.43 311.02,-380.89 309.76,-384.39 308.03,-387.91 305.81,-391.45 303.14,-395 300.01,-398.54 296.44,-402.06 292.46,-405.55 288.06,-408.99 283.28,-412.38 278.14,-415.7 272.65,-418.93 266.84,-422.08 260.74,-425.11 254.36,-428.03 247.75,-430.81"/>
<image xlink:href="/tmp/GraphvizJava/team-icon.png" width="37px" height="43px" preserveAspectRatio="xMinYMin meet" x="92.375" y="-402.189"/>
<text text-anchor="start" x="166.25" y="-387.99" font-family="sans-serif" font-weight="bold" font-size="16.00">Team</text>
<text text-anchor="start" x="143.38" y="-363.49" font-family="sans-serif" font-size="16.00">Dev_Team2</text>
</g>
<!-- Plastic_Cards -->
<g id="node5" class="node">
<title>Plastic_Cards</title>
<polygon fill="none" stroke="black" stroke-width="2" points="185.3,-169.12 192.08,-169.66 198.75,-170.32 205.29,-171.1 211.68,-171.98 217.9,-172.98 223.9,-174.08 229.68,-175.29 235.2,-176.59 240.46,-177.99 245.42,-179.48 250.07,-181.06 254.4,-182.72 258.39,-184.46 262.04,-186.27 265.32,-188.15 268.23,-190.1 270.77,-192.1 272.94,-194.15 274.72,-196.25 276.12,-198.4 277.14,-200.57 277.79,-202.78 278.07,-205.02 277.99,-207.27 277.56,-209.53 276.78,-211.8 275.66,-214.08 274.23,-216.34 272.49,-218.6 270.46,-220.84 268.15,-223.06 265.57,-225.25 262.76,-227.41 259.71,-229.53 256.45,-231.61 252.99,-233.64 249.36,-235.61 245.56,-237.52 241.62,-239.37 237.54,-241.15 233.35,-242.85 229.05,-244.47 224.67,-246.02 220.21,-247.47 215.69,-248.83 211.12,-250.1 206.51,-251.27 201.86,-252.33 197.2,-253.29 192.52,-254.15 187.83,-254.89 183.14,-255.52 178.46,-256.03 173.78,-256.43 169.12,-256.71 164.48,-256.87 159.86,-256.91 155.27,-256.83 150.71,-256.63 146.18,-256.3 141.68,-255.86 137.22,-255.3 132.8,-254.62 128.43,-253.82 124.1,-252.91 119.82,-251.88 115.6,-250.74 111.45,-249.5 107.36,-248.15 103.34,-246.7 99.41,-245.16 95.56,-243.52 91.81,-241.79 88.17,-239.98 84.64,-238.09 81.24,-236.12 77.99,-234.09 74.88,-231.99 71.93,-229.84 69.16,-227.64 66.58,-225.39 64.2,-223.1 62.04,-220.79 60.1,-218.45 58.41,-216.09 56.98,-213.72 55.82,-211.35 54.93,-208.98 54.35,-206.62 54.07,-204.27 54.1,-201.95 54.46,-199.66 55.15,-197.41 56.18,-195.2 57.56,-193.04 59.28,-190.94 61.36,-188.89 63.79,-186.92 66.57,-185.02 69.7,-183.2 73.18,-181.47 76.99,-179.82 81.13,-178.27 85.58,-176.82 90.35,-175.46 95.4,-174.22 100.73,-173.08 106.32,-172.06 112.16,-171.15 118.2,-170.36 124.45,-169.68 130.87,-169.13 137.43,-168.7 144.12,-168.39 150.91,-168.21 157.76,-168.14 164.66,-168.21 171.56,-168.39 178.45,-168.69 185.3,-169.12"/>
<text text-anchor="middle" x="164" y="-207.18" font-family="sans-serif" font-size="16.00">Plastic_Cards</text>
</g>
<!-- Dev_Team2&#45;&gt;Plastic_Cards -->
<g id="edge4" class="edge">
<title>Dev_Team2&#45;&gt;Plastic_Cards</title>
<path fill="none" stroke="#686868" stroke-dasharray="5,2" d="M164,-320.21C164,-303.35 164,-285.07 164,-268.5"/>
<polygon fill="#686868" stroke="#686868" points="167.5,-268.84 164,-258.85 160.5,-268.85 167.5,-268.84"/>
<text text-anchor="middle" x="197.75" y="-281.43" font-family="sans-serif" font-size="12.00" fill="#686868"> &#160;«realizes»</text>
</g>
</g>
</svg>
